<svg xmlns="http://www.w3.org/2000/svg" width="29.896" height="26" viewBox="0 0 29.896 26">
  <g id="sewing-machine" transform="translate(0 -29.122)">
    <path id="Path_1468" data-name="Path 1468" d="M26.5,32.585H23.944V29.624a.5.5,0,1,0-1,0v2.961H21.563V31.3a.5.5,0,0,0-1,0v1.283H6.522V30.814a.5.5,0,1,0-1,0v1.771H3.4A3.4,3.4,0,0,0,0,35.98v4.492a3.4,3.4,0,0,0,3.4,3.4H4.82v1.987a.334.334,0,0,0,.334.334h.531v1.289a.334.334,0,1,0,.669,0V46.19h.531a.334.334,0,0,0,.334-.334V43.868H10.1a.5.5,0,0,0,.436-.254l1.082-1.91h5.374v7.654H.5a.5.5,0,0,0-.5.5V54.62a.5.5,0,0,0,.5.5H29.394a.5.5,0,0,0,.5-.5V35.98A3.4,3.4,0,0,0,26.5,32.585ZM5.273,39.913h1.5v.63h-1.5Zm1.5-.669h-1.5V35.152h1.5Zm0-4.761h-1.5v-.9h1.5ZM6.552,45.521H5.489V43.868H6.552v1.653Zm10.939,4.84a.5.5,0,0,0,.5-.5V41.2a.5.5,0,0,0-.5-.5H11.323a.5.5,0,0,0-.436.254L9.8,42.865H3.4A2.4,2.4,0,0,1,1,40.473V35.98A2.4,2.4,0,0,1,3.4,33.588H4.6v7.29a.334.334,0,0,0,.334.334H7.1a.334.334,0,0,0,.334-.334v-7.29H26.5a2.4,2.4,0,0,1,2.392,2.392V50.931H1v-.571H17.491ZM1,54.119V51.6H28.892v2.518H1Z" fill="#fff"/>
    <path id="Path_1469" data-name="Path 1469" d="M215.682,111.91v2.265a4.843,4.843,0,1,0,9.686,0v-7.422a1.787,1.787,0,0,0-1.785-1.785h-9.424a2.949,2.949,0,1,0,0,5.9h.479A1.045,1.045,0,0,1,215.682,111.91Zm-1.523-1.713a2.281,2.281,0,1,1,0-4.561h9.424a1.118,1.118,0,0,1,1.116,1.116v7.422a4.174,4.174,0,0,1-8.349,0V111.91a1.715,1.715,0,0,0-1.713-1.713h-.479Z" transform="translate(-197.083 -70.772)" fill="#fff"/>
    <path id="Path_1470" data-name="Path 1470" d="M312.633,210.183a2.714,2.714,0,1,0-1.92-.794A2.707,2.707,0,0,0,312.633,210.183Zm-1.447-4.161a2.046,2.046,0,1,1,0,2.894A2.04,2.04,0,0,1,311.187,206.022Z" transform="translate(-289.191 -163.886)" fill="#fff"/>
    <path id="Path_1471" data-name="Path 1471" d="M237,125.46a1.525,1.525,0,1,0,1.525,1.525A1.526,1.526,0,0,0,237,125.46Zm0,2.381a.856.856,0,1,1,.856-.856A.857.857,0,0,1,237,127.841Z" transform="translate(-219.727 -89.895)" fill="#fff"/>
    <path id="Path_1472" data-name="Path 1472" d="M133.136,115.753h-2.489a.334.334,0,0,0-.334.334v3.463a.334.334,0,0,0,.334.334h2.489a.334.334,0,0,0,.334-.334v-3.463A.334.334,0,0,0,133.136,115.753Zm-.334,3.463h-1.82v-2.794h1.82Z" transform="translate(-121.597 -80.837)" fill="#fff"/>
    <path id="Path_1473" data-name="Path 1473" d="M329.264,224.6a.5.5,0,1,0-.354-.146A.507.507,0,0,0,329.264,224.6Z" transform="translate(-306.773 -181.469)" fill="#fff"/>
    <path id="Path_1474" data-name="Path 1474" d="M321.079,134.176h3.311a.334.334,0,1,0,0-.669h-3.311a.334.334,0,0,0,0,.669Z" transform="translate(-299.292 -97.403)" fill="#fff"/>
    <path id="Path_1475" data-name="Path 1475" d="M321.079,153.675h3.311a.334.334,0,1,0,0-.669h-3.311a.334.334,0,0,0,0,.669Z" transform="translate(-299.292 -115.598)" fill="#fff"/>
  </g>
</svg>
